<?xml version="1.0" encoding="UTF-8"?>
<svg width="1024px" height="1024px" viewBox="0 0 1024 1024" version="1.1" xmlns="http://www.w3.org/2000/svg" xmlns:xlink="http://www.w3.org/1999/xlink">
    <title>moirai-logo</title>
    <g id="moirai-logo" stroke="none" stroke-width="1" fill="none" fill-rule="evenodd">
        <path d="M512,81.5495813 L849.32152,243.995064 L932.633056,609.00675 L699.199321,901.723395 L324.800679,901.723395 L91.3669441,609.00675 L174.67848,243.995064 L512,81.5495813 Z" id="多边形" stroke="#FFFFFF" stroke-width="10" fill="#326DE6"></path>
        <circle id="椭圆形" stroke="#FFFFFF" stroke-width="20" cx="512" cy="512" r="263"></circle>
        <circle id="椭圆形" stroke="#FFFFFF" stroke-width="10" cx="512" cy="512" r="295"></circle>
        <circle id="椭圆形" stroke="#FFFFFF" stroke-width="20" cx="512" cy="513" r="30"></circle>
        <line x1="512" y1="251" x2="512" y2="775" id="直线" stroke="#FFFFFF" stroke-width="20" stroke-linecap="square"></line>
        <line x1="512" y1="251" x2="512" y2="775" id="直线" stroke="#FFFFFF" stroke-width="20" stroke-linecap="square" transform="translate(512.000000, 513.000000) rotate(60.000000) translate(-512.000000, -513.000000) "></line>
        <line x1="512" y1="251" x2="512" y2="775" id="直线" stroke="#FFFFFF" stroke-width="20" stroke-linecap="square" transform="translate(512.000000, 513.000000) rotate(120.000000) translate(-512.000000, -513.000000) "></line>
        <polygon id="三角形" fill="#FFFFFF" points="426 322 456 382 396 382"></polygon>
        <polygon id="三角形" fill="#FFFFFF" transform="translate(426.000000, 352.000000) rotate(180.000000) translate(-426.000000, -352.000000) " points="426 322 456 382 396 382"></polygon>
        <polygon id="三角形" fill="#FFFFFF" points="680 482 710 542 650 542"></polygon>
        <polygon id="三角形" fill="#FFFFFF" transform="translate(680.000000, 512.000000) rotate(180.000000) translate(-680.000000, -512.000000) " points="680 482 710 542 650 542"></polygon>
        <polygon id="三角形" fill="#FFFFFF" points="426 644 456 704 396 704"></polygon>
        <polygon id="三角形" fill="#FFFFFF" transform="translate(426.000000, 674.000000) rotate(180.000000) translate(-426.000000, -674.000000) " points="426 644 456 704 396 704"></polygon>
    </g>
</svg>